# Blender v2.79 (sub 0) OBJ File: ''
# www.blender.org
mtllib cauldron.mtl
o Empty_Mesh_Untitled
v 0.000000 0.158545 0.000000
v -0.241884 0.200222 0.000000
v -0.171038 0.200222 0.171038
v 0.000000 0.200222 0.241884
v 0.171038 0.200222 0.171038
v 0.241884 0.200222 0.000000
v 0.171038 0.200222 -0.171038
v 0.000000 0.200222 -0.241884
v -0.171038 0.200222 -0.171038
v -0.444093 0.363600 0.000000
v -0.314021 0.363600 0.314021
v 0.000000 0.363600 0.444093
v 0.314021 0.363600 0.314021
v 0.444093 0.363600 0.000000
v 0.314021 0.363600 -0.314021
v 0.000000 0.363600 -0.444093
v -0.314021 0.363600 -0.314021
v -0.461977 0.549818 0.000000
v -0.326667 0.549818 0.326667
v 0.000000 0.549818 0.461977
v 0.326667 0.549818 0.326667
v 0.461977 0.549818 0.000000
v 0.326667 0.549819 -0.326667
v 0.000000 0.549819 -0.461977
v -0.326667 0.549819 -0.326667
v -0.400084 0.743849 0.000000
v -0.282902 0.743849 0.282902
v 0.000000 0.743849 0.400084
v 0.282902 0.743849 0.282902
v 0.400084 0.743849 0.000000
v 0.282902 0.743849 -0.282902
v 0.000000 0.743849 -0.400084
v -0.282902 0.743849 -0.282902
v -0.218627 0.755248 -0.218626
v 0.000000 0.755248 -0.309185
v 0.218627 0.755248 -0.218626
v 0.309185 0.755248 0.000000
v 0.218627 0.755248 0.218627
v 0.000000 0.755248 0.309185
v -0.218627 0.755248 0.218627
v -0.309185 0.755248 0.000000
v -0.241482 0.245260 0.056631
v -0.317052 0.295306 0.056631
v -0.264233 0.295306 0.184145
v -0.210798 0.245260 0.130710
v 0.130710 0.245260 0.210798
v 0.056631 0.245260 0.241482
v 0.056631 0.295306 0.317052
v 0.184145 0.295306 0.264233
v 0.210798 0.245260 -0.130710
v 0.241482 0.245260 -0.056631
v 0.317052 0.295306 -0.056631
v 0.264233 0.295306 -0.184145
v -0.056631 0.245260 -0.241482
v -0.056631 0.295306 -0.317051
v -0.184145 0.295306 -0.264233
v -0.130710 0.245260 -0.210798
v -0.463328 -0.055231 0.174560
v -0.492256 -0.055095 0.174560
v -0.471510 -0.055095 0.224645
v -0.451055 -0.055231 0.204189
v 0.204189 -0.055231 0.451055
v 0.174560 -0.055231 0.463328
v 0.174560 -0.055095 0.492256
v 0.224645 -0.055095 0.471510
v 0.451055 -0.055231 -0.204189
v 0.463328 -0.055231 -0.174560
v 0.492256 -0.055095 -0.174560
v 0.471510 -0.055095 -0.224645
v -0.174560 -0.055231 -0.463328
v -0.174560 -0.055095 -0.492256
v -0.224645 -0.055095 -0.471510
v -0.204189 -0.055231 -0.451055
v 0.275153 1.075969 -0.595362
v 0.311021 1.140517 -0.584519
v 0.241820 1.140517 -0.612478
v 0.316507 1.128870 -0.697716
v 0.339591 1.208348 -0.697071
v 0.299454 1.208348 -0.713287
v 0.350199 1.078483 -0.781108
v 0.389497 1.120071 -0.842549
v 0.364612 1.120071 -0.852603
v -0.275849 1.134247 0.868035
v -0.345050 1.134247 0.840075
v -0.310449 1.069611 0.854055
v 0.304771 1.106393 -0.658957
v 0.325638 1.101531 -0.749342
v 0.314224 1.016425 -0.699904
v 0.338386 -0.074254 -0.635189
v 0.309822 -0.076248 -0.680833
v 0.264139 -0.074254 -0.652331
v 0.292704 -0.072260 -0.606688
v 0.352142 1.092545 -0.694771
v 0.323712 1.101980 -0.740998
v 0.277895 1.092545 -0.711913
v 0.306594 1.105968 -0.666853
v 0.376856 1.196541 -0.644882
v 0.233812 1.196541 -0.677906
v 0.255779 1.191423 -0.773059
v 0.398824 1.191423 -0.740035
v -0.211727 1.143000 0.948731
v -0.211727 1.066800 0.948731
v -0.377054 1.143000 1.018908
v -0.447232 1.143000 0.853581
v -0.281904 1.143000 0.783403
v -0.377054 1.066800 1.018908
v -0.447232 1.066800 0.853581
v -0.281904 1.066800 0.783403
v -0.233416 1.066853 0.663392
v -0.268192 1.063612 0.749465
v -0.249745 0.977633 0.703806
v -0.200466 -0.075809 0.683543
v -0.250055 -0.077139 0.704575
v -0.271117 -0.075809 0.654998
v -0.221528 -0.074479 0.633967
v -0.215243 1.053803 0.720118
v -0.264982 1.063911 0.741520
v -0.285894 1.053803 0.691573
v -0.236454 1.066570 0.670912
v -0.165705 1.157031 0.691749
v -0.301822 1.157031 0.636755
v -0.338433 1.153618 0.727369
v -0.202316 1.153618 0.782363
v 0.414716 1.143251 -0.683525
v 0.216724 1.143251 -0.729235
v 0.351604 0.921261 -0.784585
v 0.303001 0.608243 0.000000
v 0.214254 0.608243 -0.214254
v 0.000000 0.608243 -0.303001
v -0.303001 0.608243 0.000000
v -0.214254 0.608243 -0.214254
v 0.000000 0.608243 0.303001
v 0.214254 0.608243 0.214254
v -0.214254 0.608243 0.214254
v -0.157203 1.104556 0.745975
v -0.345607 1.104556 0.669855
v -0.356870 1.104900 0.968950
v -0.397273 1.104900 0.873765
v -0.302089 1.104900 0.833362
v -0.261685 1.104900 0.928547
vt -0.008613 0.599555
vt -0.178150 0.599555
vt -0.093381 0.410628
vt 0.160925 0.599555
vt 0.076156 0.410628
vt 0.330463 0.599555
vt 0.245694 0.410628
vt 0.500000 0.599555
vt 0.415231 0.410628
vt 0.669537 0.599555
vt 0.584769 0.410628
vt 0.839075 0.599555
vt 0.754306 0.410628
vt 1.008613 0.599555
vt 0.923844 0.410628
vt 1.178150 0.599555
vt 1.093381 0.410628
vt -0.178150 0.743179
vt -0.008613 0.743179
vt 0.160925 0.743179
vt 0.330463 0.743179
vt 0.500000 0.743179
vt 0.669537 0.743179
vt 0.839075 0.743179
vt 1.008613 0.743179
vt 1.178150 0.743179
vt -0.178150 0.839658
vt -0.008613 0.839658
vt 0.160925 0.839658
vt 0.330463 0.839658
vt 0.500000 0.839658
vt 0.669537 0.839658
vt 0.839075 0.839658
vt 1.008613 0.839658
vt 1.178150 0.839658
vt -0.008613 0.953614
vt -0.178150 0.953615
vt 0.160925 0.953614
vt 0.330463 0.953614
vt 0.500000 0.953614
vt 0.669537 0.953614
vt 0.839075 0.953614
vt 1.008613 0.953614
vt 1.178150 0.953614
vt -0.178150 0.994372
vt -0.008613 0.994372
vt 0.160925 0.994372
vt 0.330463 0.994372
vt 0.500000 0.994372
vt 0.669537 0.994372
vt 0.839075 0.994372
vt 1.008613 0.994372
vt 1.178150 0.994372
vt -0.008613 0.921079
vt -0.178150 0.921079
vt 0.160925 0.921079
vt 0.330463 0.921079
vt 0.500000 0.921079
vt 0.669537 0.921079
vt 0.839075 0.921079
vt 1.008613 0.921079
vt 1.178150 0.921079
vt 0.508691 0.000800
vt 0.538352 0.188019
vt 0.518559 0.000800
vt 0.488898 0.188019
vt 0.480734 0.219200
vt 0.505717 0.000885
vt 0.546516 0.219200
vt 0.521533 0.000885
vt 0.465766 0.219200
vt 0.440783 0.000885
vt 0.437809 0.000800
vt 0.457603 0.188019
vt 0.427941 0.000800
vt 0.408148 0.188019
vt 0.399984 0.219200
vt 0.424967 0.000885
vt 0.465016 0.219200
vt 0.440033 0.000885
vt 0.437059 0.000800
vt 0.456852 0.188019
vt 0.427191 0.000800
vt 0.407397 0.188019
vt 0.399234 0.219200
vt 0.424217 0.000885
vt 0.506441 0.000800
vt 0.536102 0.188019
vt 0.516309 0.000800
vt 0.486648 0.188019
vt 0.478484 0.219200
vt 0.503467 0.000885
vt 0.544266 0.219200
vt 0.519283 0.000885
vt 0.910052 0.291166
vt 0.906517 0.321229
vt 0.437506 0.288205
vt 0.432949 0.318309
vt 0.890579 0.358255
vt 0.891614 0.383880
vt 0.327759 0.381386
vt 0.326724 0.355761
vt 0.442011 0.260408
vt 0.912812 0.262760
vt 0.907264 0.238547
vt 0.437480 0.236162
vt 0.943212 0.352821
vt 0.943422 0.315804
vt 0.932207 0.363820
vt 0.932808 0.378682
vt 0.945486 0.288205
vt 0.940439 0.258391
vt 0.990641 0.311706
vt 0.970610 0.292337
vt 0.987969 0.376103
vt 0.987597 0.366888
vt 0.990641 0.255090
vt 0.967468 0.239490
vt 0.987382 0.255090
vt 0.968595 0.180513
vt 0.689858 0.174783
vt 0.675114 0.153795
vt 0.699687 0.102564
vt 0.666667 0.205128
vt 0.598191 0.153795
vt 0.640366 0.174783
vt 0.622764 0.102564
vt 0.609562 0.205128
vt 0.652433 0.151027
vt 0.666667 0.202214
vt 0.729356 0.151027
vt 0.723771 0.202214
vt 0.886751 0.281068
vt 0.460850 0.276941
vt 0.461493 0.257333
vt 0.891566 0.261500
vt 0.457339 0.317148
vt 0.883240 0.321275
vt 0.457468 0.304885
vt 0.887541 0.309051
vt 0.456696 0.336757
vt 0.886769 0.340924
vt 0.890794 0.293372
vt 0.460721 0.289205
vt 0.646848 0.202214
vt 0.589744 0.205128
vt 0.686486 0.205128
vt 0.743590 0.202214
vt 0.969437 0.000000
vt 1.000000 0.051282
vt 1.000000 0.000000
vt 0.969437 0.051282
vt 0.897436 0.051282
vt 0.897436 0.000000
vt 0.825435 0.051282
vt 0.794872 0.000000
vt 0.825435 0.000000
vt 0.794872 0.051282
vt 0.897436 0.000000
vt 0.897436 0.051282
vt 0.773115 0.039353
vt 0.794872 0.030563
vt 0.722870 0.000000
vt 0.731661 0.021757
vt 0.764309 0.102564
vt 0.755519 0.080807
vt 0.714065 0.063211
vt 0.692308 0.072001
vt 0.661745 0.102564
vt 0.652954 0.080807
vt 0.670551 0.039353
vt 0.692308 0.030563
vt 0.620306 0.000000
vt 0.629097 0.021757
vt 0.611501 0.063211
vt 0.589744 0.072001
vt 0.432949 0.260408
vt 0.857723 0.140820
vt 0.814095 0.156987
vt 0.836373 0.102564
vt 0.842742 0.179487
vt 0.743590 0.156987
vt 0.794872 0.140820
vt 0.787408 0.102564
vt 0.763604 0.179487
vt 0.885976 0.139430
vt 0.920291 0.156987
vt 0.905657 0.102564
vt 0.895500 0.178024
vt 0.974359 0.158042
vt 0.923077 0.140145
vt 0.931601 0.102564
vt 0.953515 0.179487
vt 0.442177 0.307159
vt 0.867738 0.297954
vt 0.442070 0.314696
vt 0.871940 0.305398
vt 0.865191 0.249351
vt 0.439630 0.258557
vt 0.440057 0.276287
vt 0.869927 0.266989
vt 0.869606 0.241721
vt 0.439736 0.251020
vt 0.441749 0.289429
vt 0.871619 0.280130
vt 0.910854 0.179487
vt 0.923077 0.140820
vt 0.871795 0.178024
vt 0.823925 0.178024
vt 0.812252 0.139430
vt 0.871795 0.179487
vt 0.794872 0.178024
vt 0.379863 0.200000
vt 0.329818 0.314620
vt 0.329818 0.085380
vt 0.209000 0.037902
vt 0.088182 0.085380
vt 0.038137 0.200000
vt 0.088182 0.314620
vt 0.209000 0.362098
vn -0.3440 -0.8737 0.3440
vn -0.4088 -0.9126 -0.0000
vn -0.0000 -1.0000 -0.0000
vn -0.0000 -0.9126 0.4088
vn 0.3440 -0.8737 0.3440
vn 0.4088 -0.9126 0.0000
vn 0.3440 -0.8737 -0.3440
vn 0.0000 -0.9126 -0.4088
vn -0.3440 -0.8737 -0.3440
vn -0.8016 -0.5979 -0.0000
vn -0.6611 -0.3549 0.6611
vn 0.0000 -0.5979 0.8016
vn 0.6611 -0.3549 0.6611
vn 0.8016 -0.5979 -0.0000
vn 0.6611 -0.3549 -0.6611
vn -0.0000 -0.5979 -0.8016
vn -0.6611 -0.3549 -0.6611
vn -0.9943 0.1069 -0.0000
vn -0.7031 0.1069 0.7031
vn 0.0000 0.1069 0.9943
vn 0.7031 0.1069 0.7031
vn 0.9943 0.1069 0.0000
vn 0.7031 0.1069 -0.7031
vn 0.0000 0.1069 -0.9943
vn -0.7031 0.1069 -0.7031
vn -0.4395 0.7834 0.4395
vn -0.6215 0.7834 0.0001
vn 0.0000 0.7834 0.6215
vn 0.4395 0.7834 0.4395
vn 0.6215 0.7834 -0.0000
vn 0.4395 0.7834 -0.4395
vn -0.0000 0.7834 -0.6215
vn -0.4395 0.7834 -0.4395
vn -0.1244 0.9922 0.0000
vn -0.0880 0.9922 0.0880
vn -0.0000 0.9922 0.1244
vn 0.0880 0.9922 0.0880
vn 0.1244 0.9922 -0.0000
vn 0.0880 0.9922 -0.0880
vn -0.0000 0.9922 -0.1244
vn -0.0880 0.9922 -0.0880
vn 0.9991 0.0420 0.0000
vn 0.7065 0.0420 -0.7065
vn 0.6107 0.5041 -0.6107
vn 0.6643 0.7475 0.0000
vn -0.0000 0.0420 -0.9991
vn -0.0000 0.7475 -0.6643
vn -0.7065 0.0420 -0.7065
vn -0.6107 0.5041 -0.6107
vn -0.9991 0.0420 0.0000
vn -0.8637 0.5041 0.0000
vn -0.7065 0.0420 0.7065
vn -0.3638 0.8575 0.3638
vn 0.0000 0.0420 0.9991
vn 0.0000 0.5041 0.8637
vn 0.7065 0.0420 0.7065
vn 0.6107 0.5041 0.6107
vn 0.3744 -0.5528 -0.7444
vn 0.7881 -0.6102 0.0812
vn 0.7548 -0.4716 0.4559
vn 0.3342 -0.5478 -0.7670
vn -0.0843 -0.2859 -0.9545
vn -0.0015 -0.3183 -0.9480
vn -0.7954 0.5086 0.3295
vn 0.6153 -0.2860 0.7346
vn 0.6693 -0.3183 0.6714
vn 0.7549 -0.4715 0.4559
vn 0.6153 -0.2859 0.7346
vn 0.7346 -0.2860 -0.6153
vn 0.6714 -0.3183 -0.6693
vn 0.4559 -0.4715 -0.7549
vn 0.0812 -0.6102 -0.7881
vn 0.7346 -0.2859 -0.6153
vn 0.4559 -0.4716 -0.7548
vn -0.7444 -0.5528 -0.3744
vn -0.7670 -0.5477 -0.3342
vn -0.9545 -0.2859 0.0843
vn -0.9480 -0.3183 0.0015
vn 0.3295 0.5086 0.7954
vn 0.3295 0.5086 0.7955
vn -0.6153 -0.2860 -0.7346
vn -0.6693 -0.3183 -0.6714
vn -0.7549 -0.4715 -0.4559
vn -0.7881 -0.6102 -0.0812
vn -0.6153 -0.2859 -0.7346
vn -0.7548 -0.4716 -0.4559
vn -0.3744 -0.5528 0.7444
vn -0.3342 -0.5478 0.7670
vn 0.0843 -0.2859 0.9545
vn 0.0015 -0.3183 0.9480
vn 0.7954 0.5086 -0.3295
vn 0.7444 -0.5528 0.3744
vn -0.0812 -0.6102 0.7881
vn -0.4559 -0.4716 0.7548
vn 0.7670 -0.5477 0.3342
vn 0.9545 -0.2859 -0.0843
vn 0.9480 -0.3183 -0.0015
vn -0.3295 0.5086 -0.7954
vn -0.7346 -0.2860 0.6153
vn -0.6714 -0.3183 0.6693
vn -0.4559 -0.4715 0.7549
vn -0.7346 -0.2859 0.6153
vn 0.8395 -0.5016 0.2091
vn 0.8690 -0.4499 0.2061
vn 0.8037 -0.5000 0.3226
vn -0.0665 0.9841 0.1645
vn -0.1314 0.9365 0.3252
vn -0.0015 1.0000 0.0037
vn -0.8020 -0.5003 -0.3262
vn -0.7532 -0.4309 -0.4970
vn -0.7681 -0.5018 -0.3977
vn -0.8022 -0.5000 -0.3263
vn 0.9250 -0.2708 0.2664
vn 0.9122 -0.3048 0.2738
vn -0.0734 0.9806 0.1816
vn 0.0693 0.9827 -0.1716
vn -0.8870 -0.2477 -0.3898
vn -0.8102 -0.3495 -0.4706
vn 0.8650 -0.1403 0.4818
vn 0.8641 -0.0833 0.4963
vn 0.3506 0.3522 -0.8678
vn 0.3031 0.5875 -0.7503
vn -0.9613 -0.1047 -0.2547
vn -0.9568 -0.1527 -0.2473
vn 0.8437 -0.0043 0.5367
vn 0.3545 -0.3234 -0.8774
vn -0.9798 -0.0043 -0.2000
vn 0.6142 -0.1121 0.7812
vn 0.0205 -0.2703 0.9626
vn -0.2038 -0.4232 0.8828
vn 0.7519 0.0579 0.6567
vn -0.6427 -0.0750 0.7624
vn -0.8945 -0.1121 0.4329
vn -0.9637 0.0579 0.2606
vn -0.6156 -0.1767 -0.7680
vn -0.0275 -0.3655 -0.9304
vn 0.1932 -0.5121 -0.8369
vn -0.7505 0.0073 -0.6609
vn 0.6391 -0.1669 -0.7508
vn 0.8900 -0.1767 -0.4204
vn 0.9642 0.0073 -0.2650
vn 0.8478 -0.0370 -0.5290
vn -0.5301 -0.0370 -0.8471
vn -0.8478 0.0370 0.5290
vn 0.5301 0.0370 0.8471
vn -0.9430 0.1672 0.2878
vn -0.7482 0.6305 -0.2066
vn -0.5982 -0.1215 -0.7921
vn 0.7630 0.6305 0.1422
vn 0.5983 -0.0545 0.7994
vn 0.9457 0.1150 -0.3041
vn 0.9642 0.0072 -0.2649
vn 0.8972 -0.3793 0.2263
vn -0.7505 0.0072 -0.6608
vn -0.9056 -0.3793 -0.1899
vn 0.9205 0.0000 -0.3907
vn -0.3907 0.0000 -0.9205
vn -0.9205 -0.0000 0.3907
vn 0.3907 -0.0000 0.9205
vn -0.5353 -0.8165 -0.2163
vn 0.2163 -0.8165 -0.5353
vn -0.2163 -0.8165 0.5353
vn 0.5353 -0.8165 0.2163
vn -0.2163 0.8165 0.5353
vn -0.5353 0.8165 -0.2163
vn 0.2163 0.8165 -0.5353
vn 0.5353 0.8165 0.2163
vn -0.3746 -0.0000 0.9272
vn 0.7535 -0.0905 -0.6512
vn 0.9504 -0.1230 -0.2857
vn 0.3366 -0.4390 -0.8331
vn 0.9930 0.0497 -0.1075
vn -0.6354 0.0586 -0.7699
vn 0.1285 -0.2866 -0.9494
vn -0.7477 0.2310 -0.6226
vn -0.7498 -0.1516 0.6441
vn -0.9928 0.0254 0.1170
vn -0.3251 -0.4970 0.8046
vn -0.9762 0.2092 -0.0567
vn 0.4868 -0.1660 0.8576
vn -0.1208 -0.3497 0.9290
vn 0.6379 0.0155 0.7699
vn 0.3909 -0.0247 0.9201
vn -0.9203 -0.0247 0.3903
vn -0.3909 0.0247 -0.9201
vn 0.9203 0.0247 -0.3903
vn -0.7273 0.6310 -0.2701
vn -0.4662 -0.0657 -0.8822
vn -0.9808 0.1239 0.1505
vn 0.9775 0.1586 -0.1394
vn 0.7108 0.6310 0.3109
vn 0.4662 -0.1103 0.8778
vn 0.6380 0.0155 0.7699
vn 0.8622 -0.3796 0.3354
vn -0.7476 0.2311 -0.6226
vn -0.9094 -0.1836 -0.3733
usemtl Default_1
s 1
f 3/1/1 2/2/2 1/3/3
f 4/4/4 3/1/1 1/5/3
f 5/6/5 4/4/4 1/7/3
f 6/8/6 5/6/5 1/9/3
f 7/10/7 6/8/6 1/11/3
f 8/12/8 7/10/7 1/13/3
f 9/14/9 8/12/8 1/15/3
f 2/16/2 9/14/9 1/17/3
f 10/18/10 2/2/2 3/1/1
f 11/19/11 10/18/10 3/1/1
f 12/20/12 11/19/11 3/1/1
f 12/20/12 3/1/1 4/4/4
f 5/6/5 12/20/12 4/4/4
f 13/21/13 12/20/12 5/6/5
f 6/8/6 14/22/14 5/6/5
f 14/22/14 13/21/13 5/6/5
f 7/10/7 14/22/14 6/8/6
f 15/23/15 14/22/14 7/10/7
f 8/12/8 16/24/16 7/10/7
f 16/24/16 15/23/15 7/10/7
f 16/24/16 8/12/8 9/14/9
f 17/25/17 16/24/16 9/14/9
f 10/26/10 17/25/17 9/14/9
f 10/26/10 9/14/9 2/16/2
f 18/27/18 10/18/10 11/19/11
f 19/28/19 18/27/18 11/19/11
f 20/29/20 19/28/19 11/19/11
f 20/29/20 11/19/11 12/20/12
f 13/21/13 20/29/20 12/20/12
f 21/30/21 20/29/20 13/21/13
f 14/22/14 22/31/22 13/21/13
f 22/31/22 21/30/21 13/21/13
f 15/23/15 22/31/22 14/22/14
f 23/32/23 22/31/22 15/23/15
f 16/24/16 24/33/24 15/23/15
f 24/33/24 23/32/23 15/23/15
f 24/33/24 16/24/16 17/25/17
f 25/34/25 24/33/24 17/25/17
f 18/35/18 25/34/25 17/25/17
f 18/35/18 17/25/17 10/26/10
f 27/36/26 26/37/27 18/27/18
f 27/36/26 18/27/18 19/28/19
f 27/36/26 19/28/19 20/29/20
f 28/38/28 27/36/26 20/29/20
f 21/30/21 29/39/29 20/29/20
f 29/39/29 28/38/28 20/29/20
f 22/31/22 29/39/29 21/30/21
f 30/40/30 29/39/29 22/31/22
f 23/32/23 31/41/31 22/31/22
f 31/41/31 30/40/30 22/31/22
f 24/33/24 31/41/31 23/32/23
f 32/42/32 31/41/31 24/33/24
f 33/43/33 32/42/32 24/33/24
f 33/43/33 24/33/24 25/34/25
f 33/43/33 25/34/25 18/35/18
f 26/44/27 33/43/33 18/35/18
f 41/45/34 26/37/27 27/36/26
f 40/46/35 41/45/34 27/36/26
f 39/47/36 27/36/26 28/38/28
f 39/47/36 40/46/35 27/36/26
f 29/39/29 39/47/36 28/38/28
f 38/48/37 39/47/36 29/39/29
f 30/40/30 37/49/38 29/39/29
f 37/49/38 38/48/37 29/39/29
f 31/41/31 37/49/38 30/40/30
f 36/50/39 37/49/38 31/41/31
f 32/42/32 35/51/40 31/41/31
f 35/51/40 36/50/39 31/41/31
f 35/51/40 32/42/32 33/43/33
f 34/52/41 35/51/40 33/43/33
f 41/53/34 33/43/33 26/44/27
f 41/53/34 34/52/41 33/43/33
f 41/45/42 40/46/43 134/54/44
f 130/55/45 41/45/42 134/54/44
f 40/46/43 39/47/46 134/54/44
f 134/54/44 39/47/46 132/56/47
f 39/47/46 38/48/48 133/57/49
f 39/47/46 133/57/49 132/56/47
f 38/48/48 37/49/50 133/57/49
f 37/49/50 127/58/51 133/57/49
f 37/49/50 36/50/52 128/59/53
f 37/49/50 128/59/53 127/58/51
f 36/50/52 35/51/54 128/59/53
f 35/51/54 129/60/55 128/59/53
f 35/51/54 34/52/56 131/61/57
f 129/60/55 35/51/54 131/61/57
f 34/52/56 41/53/42 131/61/57
f 131/61/57 41/53/42 130/62/45
f 58/63/58 45/64/59 61/65/60
f 42/66/61 45/64/59 58/63/58
f 43/67/62 42/66/61 58/63/58
f 59/68/63 43/67/62 58/63/58
f 44/69/64 59/68/64 60/70/64
f 44/69/64 43/67/64 59/68/64
f 44/69/65 60/70/66 61/65/67
f 45/64/59 44/69/68 61/65/60
f 49/71/69 65/72/70 62/73/71
f 46/74/72 49/71/73 62/73/74
f 46/74/72 62/73/74 63/75/75
f 47/76/76 46/74/72 63/75/75
f 48/77/77 47/76/76 63/75/75
f 64/78/78 48/77/77 63/75/75
f 49/71/79 48/77/80 64/78/79
f 65/72/79 49/71/79 64/78/79
f 53/79/81 69/80/82 66/81/83
f 50/82/84 53/79/85 66/81/86
f 50/82/84 66/81/86 67/83/87
f 51/84/88 50/82/84 67/83/87
f 52/85/89 51/84/88 67/83/87
f 68/86/90 52/85/89 67/83/87
f 53/79/91 52/85/91 68/86/91
f 69/80/91 53/79/91 68/86/91
f 70/87/92 57/88/93 73/89/94
f 54/90/95 57/88/93 70/87/92
f 55/91/96 54/90/95 70/87/92
f 71/92/97 55/91/96 70/87/92
f 56/93/98 71/92/98 72/94/98
f 56/93/98 55/91/98 71/92/98
f 56/93/99 72/94/100 73/89/101
f 57/88/93 56/93/102 73/89/94
f 74/95/103 75/96/104 85/97/105
f 75/96/104 83/98/105 85/97/105
f 75/99/106 76/100/107 84/101/108
f 75/99/106 84/101/108 83/102/108
f 84/103/109 76/104/110 74/105/111
f 84/103/109 74/105/111 85/106/112
f 78/107/113 75/96/104 77/108/114
f 77/108/114 75/96/104 74/95/103
f 78/109/115 79/110/116 76/100/107
f 78/109/115 76/100/107 75/99/106
f 76/104/110 79/111/117 77/112/118
f 76/104/110 77/112/118 74/105/111
f 81/113/119 77/108/114 80/114/120
f 78/107/113 77/108/114 81/113/119
f 82/115/121 79/110/116 81/116/122
f 79/110/116 78/109/115 81/116/122
f 79/111/117 82/117/123 80/118/124
f 77/112/118 79/111/117 80/118/124
f 81/119/119 80/118/120 126/120/125
f 82/117/121 81/119/122 126/120/126
f 80/118/124 82/117/123 126/120/127
f 124/121/128 86/122/129 88/123/130
f 124/121/128 97/124/131 86/122/129
f 86/125/132 125/126/133 88/127/130
f 98/128/134 125/126/133 86/125/132
f 125/126/135 87/129/136 88/127/137
f 125/126/135 99/130/138 87/129/136
f 87/131/139 124/121/140 88/123/137
f 100/132/141 124/121/140 87/131/139
f 93/133/142 89/134/142 90/135/142
f 94/136/142 93/133/142 90/135/142
f 91/137/143 95/138/143 90/139/143
f 95/138/143 94/140/143 90/139/143
f 92/141/144 95/138/144 91/137/144
f 96/142/144 95/138/144 92/141/144
f 93/133/145 96/143/145 92/144/145
f 93/133/145 92/144/145 89/134/145
f 86/125/146 100/145/147 87/129/148
f 97/146/147 100/145/147 86/125/146
f 98/147/149 86/122/150 87/131/151
f 99/148/149 98/147/149 87/131/151
f 100/132/152 97/124/131 124/121/153
f 98/128/134 99/130/154 125/126/155
f 108/149/156 101/150/156 102/151/156
f 105/152/156 101/150/156 108/149/156
f 104/153/157 108/149/157 107/154/157
f 104/153/157 105/152/157 108/149/157
f 103/155/158 107/156/158 106/157/158
f 103/155/158 104/158/158 107/156/158
f 102/159/159 103/155/159 106/157/159
f 101/160/159 103/155/159 102/159/159
f 140/161/160 102/162/160 106/163/161
f 137/164/161 140/161/160 106/163/161
f 140/161/160 108/165/162 102/162/160
f 140/161/160 139/166/162 108/165/162
f 108/165/162 138/167/163 107/168/163
f 139/166/162 138/167/163 108/165/162
f 138/167/163 137/164/161 106/163/161
f 107/168/163 138/167/163 106/163/161
f 105/169/164 139/170/164 140/171/165
f 101/172/165 105/169/164 140/171/165
f 103/173/166 140/171/165 137/174/166
f 103/173/166 101/172/165 140/171/165
f 138/175/167 103/173/166 137/174/166
f 104/176/167 103/173/166 138/175/167
f 105/169/164 104/176/167 138/175/167
f 139/170/164 105/169/164 138/175/167
f 83/177/168 84/103/168 85/106/168
f 109/178/169 135/179/170 111/180/171
f 120/181/172 135/179/170 109/178/169
f 136/182/173 109/183/174 111/184/171
f 136/182/173 121/185/175 109/183/174
f 110/186/176 136/187/177 111/188/178
f 122/189/179 136/187/177 110/186/176
f 135/190/180 110/191/181 111/192/178
f 135/190/180 123/193/182 110/191/181
f 112/194/183 116/195/183 113/196/183
f 116/195/183 117/197/183 113/196/183
f 118/198/184 114/199/184 113/200/184
f 117/201/184 118/198/184 113/200/184
f 118/198/185 119/202/185 115/203/185
f 118/198/185 115/203/185 114/199/185
f 115/204/186 116/195/186 112/194/186
f 119/205/186 116/195/186 115/204/186
f 120/206/187 109/207/188 110/186/189
f 123/208/187 120/206/187 110/186/189
f 109/178/190 122/209/191 110/210/192
f 121/211/191 122/209/191 109/178/190
f 120/181/172 123/212/193 135/179/194
f 122/209/179 121/185/195 136/187/196
f 127/213/51 128/214/53 133/215/49
f 133/215/49 128/214/53 132/216/47
f 128/214/53 134/217/44 132/216/47
f 128/214/53 130/218/45 134/217/44
f 128/214/53 131/219/57 130/218/45
f 128/214/53 129/220/55 131/219/57
