# Blender v2.77 (sub 0) OBJ File: 'lowpoly1.blend'
# www.blender.org
mtllib tree.mtl
o Icosphere.006
v 0.797874 -0.083933 2.309782
v 0.797874 0.565635 2.341836
v 0.902112 -0.083933 2.378092
v 0.860671 0.565635 2.378092
v 0.889914 -0.083933 2.450604
v 0.860671 0.565635 2.450604
v 0.797874 -0.083933 2.495408
v 0.797874 0.565635 2.486860
v 0.725886 -0.083933 2.450604
v 0.735077 0.565635 2.450604
v 0.710637 -0.083933 2.378092
v 0.735077 0.565635 2.378092
v 0.723569 0.613362 2.087031
v 0.821980 1.117872 2.752952
v 0.579831 1.050802 2.056962
v 1.035368 1.117872 2.087031
v 1.170585 1.117871 2.497509
v 0.856939 1.311713 2.273141
v 0.784039 0.492422 2.497509
v 0.818999 0.686262 2.752952
v 1.169663 0.686264 2.500346
v 0.993081 0.507512 2.385325
v 0.470394 0.686264 2.497509
v 0.530034 0.600727 2.283878
v 1.037783 0.686263 2.088786
v 1.250576 0.924146 2.385325
v 0.953394 0.924146 2.794361
v 0.453883 1.049038 2.599951
v 0.390403 0.879988 2.385325
v 0.953394 0.924146 1.976289
v 0.960118 1.296623 2.486771
v 0.647898 1.296622 2.385325
vn -0.193300 -0.948500 -0.251000
vn -0.076400 -0.959400 -0.271400
vn -0.677900 -0.269800 -0.683800
vn 0.809000 0.009000 0.587800
vn -0.354300 0.037500 0.934400
vn -0.257100 -0.150100 -0.954700
vn 0.809000 0.009000 -0.587800
vn 0.474100 0.597100 0.647000
vn -0.366500 0.756600 0.541500
vn -0.846900 0.494800 -0.194800
vn -0.049300 0.667800 -0.742700
vn 0.639100 0.739800 -0.210500
vn 0.594100 0.770100 -0.232500
vn -0.335300 0.786200 -0.519100
vn -0.027100 0.996100 0.083500
vn -0.159800 0.855900 0.491800
vn 0.824000 0.497400 -0.271400
vn 0.809000 -0.006300 -0.587800
vn -0.016700 0.501500 -0.865000
vn -0.817000 0.545200 -0.187700
vn -0.374300 -0.056000 0.925600
vn 0.512800 0.497400 0.699800
vn 0.809000 -0.006300 0.587800
vn 0.097200 -0.397100 -0.912600
vn -0.801900 -0.195900 -0.564500
vn -0.903100 -0.421200 -0.083500
vn -0.909300 -0.150900 0.387800
vn -0.572800 -0.246800 0.781700
vn 0.528700 -0.426400 0.733900
vn 0.861400 -0.426400 -0.276000
vn 0.200400 -0.852100 -0.483400
vn -0.516100 -0.835100 0.190300
vn -0.427200 -0.691200 0.582900
vn 0.763900 -0.597100 -0.244800
vn 0.343900 -0.770100 0.537300
vn 0.393300 -0.739800 0.545900
vn 0.530200 0.037800 -0.847000
vn 0.995000 0.054100 0.083700
vn 0.463700 0.016300 0.885800
vn -0.515400 0.009300 0.856900
vn 0.000000 1.000000 0.000000
vn -0.994200 0.025700 0.104500
vn -0.571500 0.031000 -0.820000
vn 0.000000 -1.000000 0.000000
usemtl Material.004
s off
f 19//1 24//1 13//1
f 19//2 13//2 22//2
f 13//3 24//3 15//3
f 21//4 26//4 27//4
f 20//5 27//5 28//5
f 13//6 15//6 30//6
f 25//7 30//7 26//7
f 14//8 17//8 31//8
f 28//9 14//9 32//9
f 15//10 28//10 32//10
f 16//11 15//11 18//11
f 17//12 16//12 31//12
f 31//13 16//13 18//13
f 18//14 15//14 32//14
f 32//15 31//15 18//15
f 32//16 14//16 31//16
f 26//17 16//17 17//17
f 26//18 30//18 16//18
f 30//19 15//19 16//19
f 29//20 28//20 15//20
f 28//21 27//21 14//21
f 27//22 17//22 14//22
f 27//23 26//23 17//23
f 25//24 13//24 30//24
f 15//25 24//25 29//25
f 24//26 23//26 29//26
f 29//27 23//27 28//27
f 23//28 20//28 28//28
f 20//29 21//29 27//29
f 21//30 25//30 26//30
f 22//31 13//31 25//31
f 24//32 19//32 23//32
f 19//33 20//33 23//33
f 21//34 22//34 25//34
f 19//35 22//35 20//35
f 22//36 21//36 20//36
usemtl Material.005
f 1//37 2//37 4//37 3//37
f 3//38 4//38 6//38 5//38
f 5//39 6//39 8//39 7//39
f 7//40 8//40 10//40 9//40
f 4//41 2//41 12//41 10//41 8//41 6//41
f 9//42 10//42 12//42 11//42
f 11//43 12//43 2//43 1//43
f 1//44 3//44 5//44 7//44 9//44 11//44
